<svg xmlns="http://www.w3.org/2000/svg" xmlns:xlink="http://www.w3.org/1999/xlink" width="292.152466" height="239.815430" viewBox="0 0 292.152 239.815"><path d="M0 16C0 7.16344 7.16344 0 16 0L120 0C128.837 0 136 7.16344 136 16C136 24.8366 128.837 32 120 32L16 32C7.16344 32 0 24.8366 0 16L0 16Z" fill="#EAF0FF" fill-opacity="1.000000" transform="matrix(1 0 0 1 85.6787 12.4737)"/><path d="M0 16C0 7.16344 7.16344 0 16 0L120 0C128.837 0 136 7.16344 136 16C136 24.8366 128.837 32 120 32L16 32C7.16344 32 0 24.8366 0 16L0 16Z" fill="none" stroke="#191919" stroke-opacity="1.000000" stroke-width="2" stroke-dasharray="0 0" transform="matrix(1 0 0 1 85.6787 12.4737)"/><clipPath id="clip_1_86_0"><path d="M102.639 17.4337L204.719 17.4337L204.719 47.5137L102.639 47.5137L102.639 17.4337Z"/></clipPath><g clip-path="url(#clip_1_86_0)"><path d="M58.9459 15.1221L58.9459 14.8282L58.9459 14.5342L58.9459 10.9419L63.2764 10.9419L63.2764 15.3409L58.9459 15.3409L58.9459 15.1221ZM59.3834 15.1221L59.1646 15.1221L59.1646 14.9034L63.0577 14.9034L63.0577 15.1221L62.8389 15.1221L62.8389 11.1607L63.0577 11.1607L63.0577 11.3794L59.1646 11.3794L59.1646 11.1607L59.3834 11.1607L59.3834 14.5342L59.3834 14.8282L59.3834 15.1221ZM67.231 15.3409L63.9019 15.3409L63.9019 10.9419L66.7969 10.9419L66.7969 11.1607L66.5782 11.1607L66.5782 10.1661L66.7969 10.1661L66.7969 10.3848L55.3023 10.3848L55.3023 10.1661L55.5211 10.1661L55.5211 11.1607L55.3023 11.1607L55.3023 10.9419L58.334 10.9419L58.334 14.5205Q58.334 14.9208 58.3199 15.1364L58.3065 15.3409L54.7828 15.3409L54.7828 15.1221L55.0015 15.1221L55.0015 16.1304L54.7828 16.1304L54.7828 15.9117L58.3035 15.9117L58.2782 16.1532Q57.9072 19.6902 54.9416 21.5088L54.8272 21.3223L54.9508 21.1418Q55.4172 21.4612 55.8206 21.9566L55.6509 22.0948L55.5346 21.9095Q58.5578 20.0109 58.9057 16.111L58.9235 15.9117L63.2764 15.9117L63.2764 22.0503L63.0577 22.0503L63.0577 21.8316L64.1207 21.8316L64.1207 22.0503L63.9019 22.0503L63.9019 15.9117L67.231 15.9117L67.231 16.1304L67.0123 16.1304L67.0123 15.1221L67.231 15.1221L67.231 15.3409ZM67.4498 14.9034L67.4498 16.3492L64.1207 16.3492L64.1207 16.1304L64.3394 16.1304L64.3394 22.2691L62.8389 22.2691L62.8389 16.1304L63.0577 16.1304L63.0577 16.3492L59.1236 16.3492L59.1236 16.1304L59.3415 16.1498Q58.9743 20.266 55.7673 22.28L55.6035 22.3829L55.4813 22.2329Q55.1178 21.7865 54.7036 21.5028L54.4253 21.3122L54.7129 21.1358Q57.4946 19.43 57.8431 16.1076L58.0606 16.1304L58.0606 16.3492L54.564 16.3492L54.564 14.9034L58.1016 14.9034L58.1016 15.1221L57.8833 15.1078Q57.8965 14.9065 57.8965 14.5205L57.8965 11.1607L58.1153 11.1607L58.1153 11.3794L55.0836 11.3794L55.0836 9.9473L67.0157 9.9473L67.0157 11.3794L64.1207 11.3794L64.1207 11.1607L64.3394 11.1607L64.3394 15.1221L64.1207 15.1221L64.1207 14.9034L67.231 14.9034L67.4498 14.9034ZM67.231 15.1221L67.231 16.1304L64.1207 16.1304L64.1207 22.0503L63.0577 22.0503L63.0577 16.1304L59.1236 16.1304C58.9288 18.3145 58.2144 20.4849 55.6509 22.0948C55.4561 21.8555 55.0767 21.4932 54.8272 21.3223C57.1514 19.897 57.8624 18.0205 58.0606 16.1304L54.7828 16.1304L54.7828 15.1221L58.1016 15.1221C58.1153 14.9136 58.1153 14.729 58.1153 14.5205L58.1153 11.1607L55.3023 11.1607L55.3023 10.1661L66.7969 10.1661L66.7969 11.1607L64.1207 11.1607L64.1207 15.1221L67.231 15.1221ZM59.1646 15.1221L63.0577 15.1221L63.0577 11.1607L59.1646 11.1607L59.1646 14.5342C59.1646 14.729 59.1646 14.9273 59.1646 15.1221ZM72.6543 13.0988Q72.4011 15.7647 71.6912 17.6631L71.5836 17.9509L71.3469 17.755Q70.7758 17.2825 69.917 16.6709L69.7932 16.5827L69.8327 16.4359Q70.2876 14.7446 70.6432 13.0336L70.6795 12.8594L72.677 12.8594L72.6543 13.0988ZM72.2188 13.0575L72.4365 13.0782L72.4365 13.2969L70.8574 13.2969L70.8574 13.0782L71.0716 13.1227Q70.7134 14.846 70.2552 16.5495L70.0439 16.4927L70.1709 16.3145Q71.0425 16.9353 71.6258 17.4179L71.4863 17.5865L71.2814 17.5098Q71.9711 15.6657 72.2188 13.0575ZM72.8785 12.2994L72.6935 12.3296L70.7704 12.3296L70.8243 12.0669Q71.1002 10.721 71.2831 9.34093L71.5 9.36967L71.4871 9.58803L70.5061 9.52993L70.519 9.31156L70.7364 9.33591Q70.6127 10.4406 70.3141 12.1486L70.2825 12.3296L68.6426 12.3296L68.6426 12.1109L68.8613 12.1109L68.8613 13.0782L68.6426 13.0782L68.6426 12.8594L70.1883 12.8594L70.1313 13.1242Q69.606 15.5643 69.1618 16.9394L68.9536 16.8721L69.0785 16.6925Q70.1473 17.4353 71.2081 18.3431L71.3385 18.4546L71.2613 18.6078Q70.304 20.5067 68.7206 21.3773L68.6152 21.1856L68.7686 21.0296Q69.0911 21.3465 69.4185 21.8976L69.2305 22.0093L69.1165 21.8226Q70.6882 20.8633 71.6281 19.0937L71.7644 18.837L71.9734 19.0391Q72.8347 19.8721 73.2883 20.5122L73.1099 20.6387L72.9361 20.5059L73.5786 19.6651L73.7524 19.7979L73.5779 19.9298Q73.0576 19.2411 72.1121 18.4217L71.9927 18.3182L72.0534 18.1723Q72.9761 15.956 73.2265 12.1682L73.4448 12.1827L73.4093 12.3985L72.8077 12.2994L72.8433 12.0835L72.8785 12.2994ZM72.8434 11.8619L73.6762 11.9991L73.6631 12.1971Q73.4078 16.0572 72.4573 18.3405L72.2554 18.2564L72.3986 18.0911Q73.3789 18.9407 73.927 19.666L74.0272 19.7986L73.1032 21.0077L72.9314 20.7652Q72.5013 20.1583 71.6692 19.3536L71.8213 19.1963L72.0145 19.2989Q71.0184 21.1743 69.3444 22.196L69.1555 22.3114L69.0424 22.1211Q68.744 21.6188 68.4619 21.3416L68.2522 21.1355L68.5098 20.9939Q69.9744 20.1887 70.8706 18.4108L71.0659 18.5093L70.9237 18.6755Q69.8796 17.782 68.8288 17.0517L68.6956 16.9592L68.7455 16.8049Q69.1829 15.4507 69.7036 13.0321L69.9175 13.0782L69.9175 13.2969L68.4238 13.2969L68.4238 11.8921L70.0986 11.8921L70.0986 12.1109L69.8831 12.0732Q70.1794 10.3785 70.3017 9.28721L70.3248 9.08092L71.7478 9.16521L71.7169 9.39841Q71.5319 10.7938 71.2529 12.1548L71.0386 12.1109L71.0386 11.8921L72.6758 11.8921L72.6758 12.1109L72.6405 11.895L72.808 11.8676L72.8434 11.8619ZM79.8398 17.3199L79.8398 20.7173L75.229 20.7173L75.229 17.1011L79.8398 17.1011L79.8398 17.3199ZM79.4023 17.3199L79.6211 17.3199L79.6211 17.5386L75.4478 17.5386L75.4478 17.3199L75.6665 17.3199L75.6665 20.4986L75.4478 20.4986L75.4478 20.2798L79.6211 20.2798L79.6211 20.4986L79.4023 20.4986L79.4023 17.3199ZM74.4805 21.8179L75.4478 21.8179L75.4478 22.0367L75.229 22.0367L75.229 21.2027L79.8398 21.2027L79.8398 22.0093L79.6211 22.0093L79.6211 21.7906L80.6294 21.7906L80.6294 22.0093L80.4106 22.0093L80.4106 16.3833L80.6294 16.3833L80.6294 16.6021L74.4805 16.6021L74.4805 16.3833L74.6992 16.3833L74.6992 22.0367L74.4805 22.0367L74.4805 21.8179ZM74.2617 22.2554L74.2617 16.1646L80.8481 16.1646L80.8481 22.2281L79.4023 22.2281L79.4023 21.4214L79.6211 21.4214L79.6211 21.6402L75.4478 21.6402L75.4478 21.4214L75.6665 21.4214L75.6665 22.2554L74.4805 22.2554L74.2617 22.2554ZM78.5229 11.5342Q79.3421 12.6568 79.8941 13.6448L80.0636 13.9482L74.8169 14.2756L75.0896 13.8999Q76.4478 12.0285 77.642 9.45864L77.8403 9.55082L77.777 9.76021L76.7141 9.43893L76.7773 9.22953L76.9809 9.30976Q75.9809 11.8462 74.7411 13.5032L74.5659 13.3721L74.7456 13.4968Q74.1187 14.4004 73.6986 14.4823L73.6567 14.2676L73.8524 14.1698Q74.13 14.7251 74.2206 15.2231L74.0054 15.2622L73.9221 15.06Q74.3954 14.8651 80.1651 14.4289L80.3092 14.418L80.3757 14.5462Q80.6096 14.9963 80.832 15.542L80.6294 15.6246L80.5316 15.4289L81.4271 14.9811L81.5249 15.1768L81.322 15.2586Q80.6047 13.4793 78.9873 11.4081L79.1597 11.2735L79.2542 11.4708L78.4407 11.8604L78.3462 11.6631L78.5229 11.5342ZM78.0144 11.5795L79.2238 11.0002L79.3321 11.1388Q80.9874 13.2586 81.7278 15.095L81.8033 15.2822L80.5159 15.9258L80.4268 15.7071Q80.2121 15.1801 79.9875 14.7479L80.1816 14.647L80.1981 14.8651Q74.4977 15.2961 74.0887 15.4645L73.8385 15.5675L73.7901 15.3014Q73.7108 14.8648 73.4611 14.3654L73.3324 14.108L73.6148 14.0529Q73.8605 14.005 74.3862 13.2474L74.3884 13.2442L74.3908 13.2411Q75.5954 11.6311 76.5738 9.1493L76.6477 8.96184L78.145 9.41437L78.0387 9.643Q76.8267 12.2512 75.4436 14.1569L75.2666 14.0284L75.253 13.81L79.6895 13.5332L79.7031 13.7515L79.5122 13.8582Q78.9731 12.8933 78.1695 11.7921L78.0144 11.5795ZM78.3462 11.6631L79.1597 11.2735C80.1099 12.4903 81.0908 14.1001 81.5249 15.1768L80.6294 15.6246C80.5166 15.3477 80.3628 14.9956 80.1816 14.647C75.0273 15.0367 74.4121 15.0948 74.0054 15.2622C73.9644 15.0367 73.7969 14.5479 73.6567 14.2676C73.937 14.2129 74.2173 13.8746 74.5659 13.3721C74.9316 12.8833 76.0767 11.0069 76.7773 9.22953L77.8403 9.55082C77.0986 11.147 76.1895 12.7569 75.2666 14.0284L79.7031 13.7515C79.2964 13.0235 78.8076 12.2954 78.3462 11.6631ZM74.4805 22.0367L74.4805 16.3833L80.6294 16.3833L80.6294 22.0093L79.6211 22.0093L79.6211 21.4214L75.4478 21.4214L75.4478 22.0367L74.4805 22.0367ZM79.6211 17.3199L75.4478 17.3199L75.4478 20.4986L79.6211 20.4986L79.6211 17.3199ZM72.8433 12.0835L73.4448 12.1827C73.2773 14.7154 72.9014 16.7046 72.2554 18.2564C72.8706 18.7896 73.4038 19.3365 73.7524 19.7979L73.1099 20.6387C72.8022 20.2046 72.3408 19.6988 71.8213 19.1963C71.1514 20.4576 70.2832 21.3667 69.2305 22.0093C69.0903 21.7735 68.8135 21.3804 68.6152 21.1856C69.6099 20.6387 70.437 19.7569 71.0659 18.5093C70.3789 17.9214 69.6372 17.3472 68.9536 16.8721C69.2749 15.8775 69.6099 14.5069 69.9175 13.0782L68.6426 13.0782L68.6426 12.1109L70.0986 12.1109C70.2695 11.1333 70.4233 10.1661 70.519 9.31156L71.5 9.36967C71.3872 10.2207 71.2334 11.1607 71.0386 12.1109L72.6758 12.1109L72.8433 12.0835ZM72.4365 13.0782L70.8574 13.0782C70.6045 14.295 70.3105 15.5015 70.0439 16.4927C70.519 16.8311 71.0112 17.1934 71.4863 17.5865C71.9478 16.3526 72.269 14.8418 72.4365 13.0782Z" fill="#191919" fill-opacity="1.000000" transform="matrix(1 0 0 1 85.6787 12.4737)"/></g><path d="M0 25L85 0L170 25L85 50L0 25Z" fill="#FCF2D2" fill-opacity="1.000000" transform="matrix(1 0 0 1 68.6787 76.4737)"/><path d="M0 25L85 0L170 25L85 50L0 25Z" fill="none" stroke="#191919" stroke-opacity="1.000000" stroke-width="2" stroke-dasharray="0 0" transform="matrix(1 0 0 1 68.6787 76.4737)"/><clipPath id="clip_1_90_0"><path d="M111.179 91.9737L196.179 91.9737L196.179 116.974L111.179 116.974L111.179 91.9737Z"/></clipPath><g clip-path="url(#clip_1_90_0)"><path d="M69.083 29.3125L70.1993 29.3125L70.1993 29.5L70.0118 29.5L70.0118 25.8203L71.6495 25.8203Q74.7022 25.8203 74.7022 23.2832Q74.7022 20.8926 71.5909 20.8926L69.083 20.8926L69.083 20.7051L69.2705 20.7051L69.2705 29.5L69.083 29.5L69.083 29.3125ZM68.8955 29.6875L68.8955 20.5176L71.5909 20.5176Q75.0772 20.5176 75.0772 23.2832Q75.0772 24.7261 74.1063 25.4905Q73.211 26.1953 71.6495 26.1953L70.1993 26.1953L70.1993 26.0078L70.3868 26.0078L70.3868 29.6875L69.083 29.6875L68.8955 29.6875ZM70.0118 25.1084L70.0118 21.417L71.459 21.417Q73.9727 21.417 73.9727 23.2832Q73.9727 25.2959 71.5059 25.2959L70.0118 25.2959L70.0118 25.1084ZM70.3868 25.1084L70.1993 25.1084L70.1993 24.9209L71.5059 24.9209Q73.5977 24.9209 73.5977 23.2832Q73.5977 22.4586 73.0976 22.1227Q72.6053 21.792 71.459 21.792L70.1993 21.792L70.1993 21.6045L70.3868 21.6045L70.3868 25.1084ZM70.1993 25.1084L71.5059 25.1084C73.0528 25.1084 73.7852 24.543 73.7852 23.2832C73.7852 22.0117 73.0059 21.6045 71.459 21.6045L70.1993 21.6045L70.1993 25.1084ZM69.083 29.5L69.083 20.7051L71.5909 20.7051C73.5713 20.7051 74.8897 21.3643 74.8897 23.2832C74.8897 25.1436 73.5713 26.0078 71.6495 26.0078L70.1993 26.0078L70.1993 29.5L69.083 29.5ZM76.5704 29.3125L77.6632 29.3125L77.6632 29.5L77.4757 29.5L77.4757 22.9844L77.6632 22.9844L77.6632 23.1719L76.5704 23.1719L76.5704 22.9844L76.7579 22.9844L76.7579 29.5L76.5704 29.5L76.5704 29.3125ZM76.3829 29.6875L76.3829 22.7969L77.8507 22.7969L77.8507 29.6875L76.5704 29.6875L76.3829 29.6875ZM77.1212 21.4521Q77.6896 21.4521 77.6896 20.9307Q77.6896 20.4121 77.1212 20.4121Q76.5528 20.4121 76.5528 20.9307Q76.5528 21.4521 77.1212 21.4521ZM77.1212 21.8271Q76.7232 21.8271 76.4539 21.5761Q76.1778 21.3187 76.1778 20.9307Q76.1778 20.0371 77.1212 20.0371Q78.0646 20.0371 78.0646 20.9307Q78.0646 21.3191 77.7898 21.5759Q77.521 21.8271 77.1212 21.8271ZM77.1212 21.6396C76.6905 21.6396 76.3653 21.3408 76.3653 20.9307C76.3653 20.4883 76.6905 20.2246 77.1212 20.2246C77.5548 20.2246 77.8771 20.4883 77.8771 20.9307C77.8771 21.3408 77.5548 21.6396 77.1212 21.6396ZM76.5704 29.5L76.5704 22.9844L77.6632 22.9844L77.6632 29.5L76.5704 29.5ZM79.8704 29.3125L80.9632 29.3125L80.9632 29.5L80.7757 29.5L80.7757 25.2755L80.7883 25.2429Q81.415 23.623 82.6068 23.623Q82.9903 23.623 83.3089 23.7436L83.2425 23.9189L83.0591 23.8802L83.2612 22.9222L83.4447 22.9609L83.3561 23.1262Q83.1299 23.0049 82.7503 23.0049Q81.761 23.0049 81.0658 24.2617L81.0123 24.3584L80.6937 24.3584L80.583 22.9996L80.7699 22.9844L80.7699 23.1719L79.8704 23.1719L79.8704 22.9844L80.0579 22.9844L80.0579 29.5L79.8704 29.5L79.8704 29.3125ZM79.6829 29.6875L79.6829 22.7969L80.9427 22.7969L81.0534 24.1557L80.8665 24.1709L80.8665 23.9834L80.9017 23.9834L80.9017 24.1709L80.7376 24.0801Q81.5399 22.6299 82.7503 22.6299Q83.2241 22.6299 83.5333 22.7957L83.6571 22.8621L83.3808 24.1717L83.1762 24.0943Q82.9217 23.998 82.6068 23.998Q81.672 23.998 81.1381 25.3782L80.9632 25.3105L81.1507 25.3105L81.1507 29.6875L79.8704 29.6875L79.6829 29.6875ZM79.8704 29.5L79.8704 22.9844L80.7699 22.9844L80.8665 24.1709L80.9017 24.1709C81.3587 23.3447 82.0179 22.8174 82.7503 22.8174C83.0374 22.8174 83.2425 22.8525 83.4447 22.9609L83.2425 23.9189C83.0257 23.8369 82.8704 23.8105 82.6068 23.8105C82.0648 23.8105 81.3939 24.1973 80.9632 25.3105L80.9632 29.5L79.8704 29.5ZM86.567 23.8633L92.3151 23.8633L92.3151 24.0508L92.1276 24.0508L92.1276 23.2363L92.3151 23.2363L92.3151 23.4238L86.567 23.4238L86.567 23.2363L86.7545 23.2363L86.7545 24.0508L86.567 24.0508L86.567 23.8633ZM86.3795 24.2383L86.3795 23.0488L92.5026 23.0488L92.5026 24.2383L86.567 24.2383L86.3795 24.2383ZM86.567 26.7314L92.3151 26.7314L92.3151 26.9189L92.1276 26.9189L92.1276 26.1045L92.3151 26.1045L92.3151 26.292L86.567 26.292L86.567 26.1045L86.7545 26.1045L86.7545 26.9189L86.567 26.9189L86.567 26.7314ZM86.3795 27.1064L86.3795 25.917L92.5026 25.917L92.5026 27.1064L86.567 27.1064L86.3795 27.1064ZM86.567 26.9189L86.567 26.1045L92.3151 26.1045L92.3151 26.9189L86.567 26.9189ZM86.567 24.0508L86.567 23.2363L92.3151 23.2363L92.3151 24.0508L86.567 24.0508ZM96.5128 29.3125L101.338 29.3125L101.338 29.5L101.15 29.5L101.15 28.5889L101.338 28.5889L101.338 28.7764L99.3868 28.7764L99.3868 20.7051L99.5743 20.7051L99.5743 20.8926L98.7335 20.8926L98.7335 20.7051L98.8267 20.8678Q98.0685 21.3024 96.9458 21.5134L96.9112 21.3291L97.0987 21.3291L97.0987 22.0234L96.9112 22.0234L96.9112 21.8359L98.6573 21.8359L98.6573 28.7764L96.5128 28.7764L96.5128 28.5889L96.7003 28.5889L96.7003 29.5L96.5128 29.5L96.5128 29.3125ZM96.3253 29.6875L96.3253 28.4014L98.4698 28.4014L98.4698 28.5889L98.2823 28.5889L98.2823 22.0234L98.4698 22.0234L98.4698 22.2109L96.7237 22.2109L96.7237 21.1736L96.8766 21.1448Q97.9369 20.9455 98.6402 20.5424L98.6835 20.5176L99.7618 20.5176L99.7618 28.5889L99.5743 28.5889L99.5743 28.4014L101.525 28.4014L101.525 29.6875L96.5128 29.6875L96.3253 29.6875ZM96.5128 29.5L96.5128 28.5889L98.4698 28.5889L98.4698 22.0234L96.9112 22.0234L96.9112 21.3291C97.6905 21.1826 98.253 20.9805 98.7335 20.7051L99.5743 20.7051L99.5743 28.5889L101.338 28.5889L101.338 29.5L96.5128 29.5Z" fill="#191919" fill-opacity="1.000000" transform="matrix(1 0 0 1 68.6787 76.4737)"/></g><path d="M0 0L64 0L64 32L0 32L0 0Z" fill="#F0EBFF" fill-opacity="1.000000" transform="matrix(1 0 0 1 121.679 153.177)"/><path d="M0 0L64 0L64 32L0 32L0 0Z" fill="none" stroke="#191919" stroke-opacity="1.000000" stroke-width="2" stroke-dasharray="0 0" transform="matrix(1 0 0 1 121.679 153.177)"/><clipPath id="clip_1_75_0"><path d="M122.639 160.137L184.719 160.137L184.719 190.217L122.639 190.217L122.639 160.137Z"/></clipPath><g clip-path="url(#clip_1_75_0)"><path d="M24.2392 15.9561L24.2392 15.7041L24.2392 15.4522L24.2392 12.3731L27.9511 12.3731L27.9511 16.1436L24.2392 16.1436L24.2392 15.9561ZM24.6142 15.9561L24.4267 15.9561L24.4267 15.7686L27.7636 15.7686L27.7636 15.9561L27.5761 15.9561L27.5761 12.5606L27.7636 12.5606L27.7636 12.7481L24.4267 12.7481L24.4267 12.5606L24.6142 12.5606L24.6142 15.4522L24.6142 15.7041L24.6142 15.9561ZM31.3407 16.1436L28.4872 16.1436L28.4872 12.3731L30.9687 12.3731L30.9687 12.5606L30.7812 12.5606L30.7812 11.708L30.9687 11.708L30.9687 11.8955L21.1161 11.8955L21.1161 11.708L21.3036 11.708L21.3036 12.5606L21.1161 12.5606L21.1161 12.3731L23.7148 12.3731L23.7148 15.4405Q23.7148 15.7835 23.7026 15.9684L23.6911 16.1436L20.6708 16.1436L20.6708 15.9561L20.8583 15.9561L20.8583 16.8204L20.6708 16.8204L20.6708 16.6329L23.6886 16.6329L23.6669 16.8399Q23.3489 19.8716 20.8069 21.4304L20.7089 21.2705L20.8148 21.1159Q21.2146 21.3896 21.5603 21.8143L21.4149 21.9327L21.3152 21.7739Q23.9066 20.1465 24.2048 16.8037L24.22 16.6329L27.9511 16.6329L27.9511 21.8946L27.7636 21.8946L27.7636 21.7071L28.6747 21.7071L28.6747 21.8946L28.4872 21.8946L28.4872 16.6329L31.3407 16.6329L31.3407 16.8204L31.1532 16.8204L31.1532 15.9561L31.3407 15.9561L31.3407 16.1436ZM31.5282 15.7686L31.5282 17.0079L28.6747 17.0079L28.6747 16.8204L28.8622 16.8204L28.8622 22.0821L27.5761 22.0821L27.5761 16.8204L27.7636 16.8204L27.7636 17.0079L24.3915 17.0079L24.3915 16.8204L24.5783 16.837Q24.2635 20.3651 21.5147 22.0914L21.3742 22.1796L21.2696 22.051Q20.958 21.6684 20.6029 21.4252L20.3644 21.2619L20.6109 21.1107Q22.9952 19.6485 23.2939 16.8008L23.4804 16.8204L23.4804 17.0079L20.4833 17.0079L20.4833 15.7686L23.5155 15.7686L23.5155 15.9561L23.3284 15.9438Q23.3398 15.7712 23.3398 15.4405L23.3398 12.5606L23.5273 12.5606L23.5273 12.7481L20.9286 12.7481L20.9286 11.5205L31.1562 11.5205L31.1562 12.7481L28.6747 12.7481L28.6747 12.5606L28.8622 12.5606L28.8622 15.9561L28.6747 15.9561L28.6747 15.7686L31.3407 15.7686L31.5282 15.7686ZM31.3407 15.9561L31.3407 16.8204L28.6747 16.8204L28.6747 21.8946L27.7636 21.8946L27.7636 16.8204L24.3915 16.8204C24.2245 18.6924 23.6122 20.5528 21.4149 21.9327C21.248 21.7276 20.9228 21.417 20.7089 21.2705C22.7011 20.0489 23.3105 18.4405 23.4804 16.8204L20.6708 16.8204L20.6708 15.9561L23.5155 15.9561C23.5273 15.7774 23.5273 15.6192 23.5273 15.4405L23.5273 12.5606L21.1161 12.5606L21.1161 11.708L30.9687 11.708L30.9687 12.5606L28.6747 12.5606L28.6747 15.9561L31.3407 15.9561ZM24.4267 15.9561L27.7636 15.9561L27.7636 12.5606L24.4267 12.5606L24.4267 15.4522C24.4267 15.6192 24.4267 15.7891 24.4267 15.9561ZM33.1514 21.6954L34.0391 21.6954L34.0391 21.8829L33.8516 21.8829L33.8516 13.3282L34.0391 13.3282L34.0391 13.5157L33.1514 13.5157L33.1514 13.3282L33.3389 13.3282L33.3389 21.8829L33.1514 21.8829L33.1514 21.6954ZM32.9639 22.0704L32.9639 13.1407L34.2266 13.1407L34.2266 22.0704L33.1514 22.0704L32.9639 22.0704ZM33.6995 11.2123Q34.8732 12.5488 35.3927 13.4895L35.2285 13.5801L35.1206 13.4268L35.853 12.9112L35.9609 13.0645L35.8019 13.1638Q35.2192 12.2305 34.1068 11.0329L34.2441 10.9053L34.3439 11.0641L33.6583 11.4947L33.5586 11.336L33.6995 11.2123ZM33.2725 11.2943L34.2759 10.664L34.3815 10.7777Q35.5183 12.0015 36.12 12.9652L36.2139 13.1157L35.1655 13.8538L35.0644 13.6708Q34.5646 12.7657 33.4177 11.4597L33.2725 11.2943ZM42.8955 11.5469L36.3066 11.5469L36.3066 11.3594L36.4941 11.3594L36.4941 12.212L36.3066 12.212L36.3066 12.0245L42.1953 12.0245L42.1953 20.6963Q42.1953 21.1688 41.707 21.1941L41.6973 21.0069L41.7168 21.1934Q41.2008 21.2474 39.7087 21.1825L39.7168 20.9952L39.8778 20.899Q40.1227 21.3088 40.2231 21.8235L40.0391 21.8594L40.041 21.6719Q41.8261 21.6903 42.2726 21.5384L42.333 21.7159L42.2662 21.5407Q42.708 21.3722 42.708 20.6963L42.708 11.3594L42.8955 11.3594L42.8955 11.5469ZM43.083 11.1719L43.083 20.6963Q43.083 21.6306 42.3998 21.8911L42.3966 21.8923L42.3934 21.8934Q41.8863 22.0659 40.0371 22.0469L39.8843 22.0453L39.855 21.8953Q39.7672 21.445 39.5558 21.0913L39.3774 20.7927L39.7249 20.8078Q41.1894 20.8715 41.6777 20.8204L41.6826 20.8199L41.6875 20.8196Q41.8203 20.8127 41.8203 20.6963L41.8203 12.212L42.0078 12.212L42.0078 12.3995L36.1191 12.3995L36.1191 11.1719L42.8955 11.1719L43.083 11.1719ZM42.8955 11.3594L42.8955 20.6963C42.8955 21.2969 42.7402 21.5606 42.333 21.7159C41.9111 21.8594 41.1787 21.8711 40.0391 21.8594C39.9922 21.6192 39.8604 21.2354 39.7168 20.9952C40.5928 21.0332 41.4453 21.0332 41.6973 21.0069C41.9229 20.9952 42.0078 20.9248 42.0078 20.6963L42.0078 12.212L36.3066 12.212L36.3066 11.3594L42.8955 11.3594ZM33.5586 11.336L34.2441 10.9053C34.8564 11.5645 35.6006 12.4873 35.9609 13.0645L35.2285 13.5801C34.9033 12.9913 34.1709 12.0332 33.5586 11.336ZM33.1514 21.8829L33.1514 13.3282L34.0391 13.3282L34.0391 21.8829L33.1514 21.8829Z" fill="#191919" fill-opacity="1.000000" transform="matrix(1 0 0 1 121.679 153.177)"/></g><path d="M3.06592 16L4.36816 16L4.36816 12.0112L7.44775 5.73926L6.10449 5.73926L4.7749 8.6377C4.46729 9.39307 4.11523 10.1074 3.75293 10.8765L3.69482 10.8765C3.33252 10.1074 3.0249 9.39307 2.68652 8.6377L1.37061 5.73926L-0.0136719 5.73926L3.06592 12.0112L3.06592 16Z" fill="#19191A" fill-opacity="1.000000" transform="matrix(1 0 0 1 166.324 129.325)"/><path d="M1.40137 16L2.63184 16L2.63184 10.6099C2.63184 9.5332 2.53271 8.43945 2.47803 7.40381L2.53271 7.40381L3.64014 9.51953L7.37939 16L8.70898 16L8.70898 5.73926L7.4751 5.73926L7.4751 11.0713C7.4751 12.1377 7.57422 13.2827 7.64258 14.3184L7.57422 14.3184L6.48047 12.2061L2.74463 5.73926L1.40137 5.73926L1.40137 16Z" fill="#19191A" fill-opacity="1.000000" transform="matrix(1 0 0 1 44.1494 76.4737)"/><path d="M0 0L64 0L64 32L0 32L0 0Z" fill="#F0EBFF" fill-opacity="1.000000" transform="matrix(1 0 0 1 12.1494 153.177)"/><path d="M0 0L64 0L64 32L0 32L0 0Z" fill="none" stroke="#191919" stroke-opacity="1.000000" stroke-width="2" stroke-dasharray="0 0" transform="matrix(1 0 0 1 12.1494 153.177)"/><clipPath id="clip_1_114_0"><path d="M13.1094 158.137L75.1894 158.137L75.1894 188.217L13.1094 188.217L13.1094 158.137Z"/></clipPath><g clip-path="url(#clip_1_114_0)"><path d="M21.3521 9.68397Q22.3473 10.9765 22.7689 12.1497L22.563 12.2237L22.4587 12.0314L23.385 11.5289L23.4893 11.7212L23.2856 11.801Q22.8612 10.717 21.878 9.52234L22.0469 9.38334L22.1448 9.579L21.2766 10.0131L21.1788 9.81742L21.3521 9.68397ZM20.8435 9.7405L22.1051 9.10971L22.2158 9.24434Q23.2432 10.4928 23.693 11.6415L23.7635 11.8214L22.4434 12.5375L22.3572 12.2977Q21.9588 11.189 21.0054 9.95087L20.8435 9.7405ZM30.8277 16.7593L30.8277 15.7373L31.0464 15.7373L31.0464 15.9561L25.3714 15.9561L25.3832 15.7261Q25.3838 15.7139 25.3855 15.6807Q25.4102 15.2004 25.4102 14.9546L25.4102 13.0269L30.2911 13.0269L30.2911 13.2456L30.0723 13.2456L30.0723 12.2237L30.2911 12.2237L30.2911 12.4424L27.1093 12.4424L27.3373 12.102Q27.9996 11.1131 28.8561 9.58405L29.0469 9.69096L28.9738 9.89711L27.8663 9.50404L27.9395 9.29789L28.1419 9.38102Q27.5184 10.8986 26.5851 12.3424L26.5205 12.4424L19.8492 12.4424L19.8492 12.2237L20.0679 12.2237L20.0679 13.2456L19.8492 13.2456L19.8492 13.0269L24.6856 13.0269L24.6856 14.941Q24.6856 15.1877 24.6619 15.6694Q24.6593 15.7218 24.658 15.748L24.6479 15.9561L19.0084 15.9561L19.0084 15.7373L19.2271 15.7373L19.2271 16.7593L19.0084 16.7593L19.0084 16.5406L24.5248 16.5406L24.4406 16.822Q23.5849 19.683 18.7989 21.3208L18.7281 21.1138L18.8587 20.9383Q19.2694 21.2439 19.6578 21.8976L19.4698 22.0093L19.3981 21.8027Q23.9241 20.2321 25.0048 17.4659L25.1772 17.0245L25.4013 17.442Q27.1403 20.682 30.7311 21.7171L30.6705 21.9273L30.4714 21.8366Q30.7231 21.2841 31.2482 20.7874L31.3985 20.9463L31.3461 21.1587Q27.4098 20.1878 25.701 16.8592L25.5374 16.5406L31.0464 16.5406L31.0464 16.7593L30.8277 16.7593ZM31.2652 16.9781L25.8956 16.9781L25.8956 16.7593L26.0902 16.6594Q27.708 19.8108 31.4509 20.7339L31.8399 20.8299L31.5488 21.1052Q31.0858 21.5432 30.8695 22.018L30.7913 22.1898L30.6099 22.1375Q26.842 21.0513 25.0158 17.6489L25.2086 17.5454L25.4123 17.625Q24.2582 20.5793 19.5415 22.216L19.3729 22.2745L19.2817 22.1211Q18.938 21.5426 18.5975 21.2893L18.2642 21.0414L18.6573 20.9068Q23.2303 19.342 24.0214 16.6966L24.231 16.7593L24.231 16.9781L18.7896 16.9781L18.7896 15.5186L24.4395 15.5186L24.4395 15.7373L24.221 15.7267Q24.2223 15.7002 24.2249 15.6478Q24.2481 15.177 24.2481 14.941L24.2481 13.2456L24.4669 13.2456L24.4669 13.4644L19.6304 13.4644L19.6304 12.0049L26.4014 12.0049L26.4014 12.2237L26.2177 12.1049Q27.129 10.695 27.7372 9.21476L27.8163 9.02205L29.3645 9.57157L29.2378 9.79786Q28.3728 11.342 27.7009 12.3454L27.5191 12.2237L27.5191 12.0049L30.5098 12.0049L30.5098 13.4644L25.629 13.4644L25.629 13.2456L25.8477 13.2456L25.8477 14.9546Q25.8477 15.2117 25.8224 15.7032Q25.8209 15.732 25.8201 15.7485L25.6016 15.7373L25.6016 15.5186L31.2652 15.5186L31.2652 16.7593L31.2652 16.9781ZM31.0464 16.7593L25.8956 16.7593C26.9449 18.8033 28.8487 20.3174 31.3985 20.9463C31.1456 21.1856 30.8106 21.6197 30.6705 21.9273C28.1924 21.2129 26.357 19.6851 25.2086 17.5454C24.5797 19.1553 23.0552 20.7652 19.4698 22.0093C19.3297 21.7735 19.0084 21.3223 18.7281 21.1138C22.4537 19.8389 23.7833 18.2564 24.231 16.7593L19.0084 16.7593L19.0084 15.7373L24.4395 15.7373C24.4532 15.4571 24.4669 15.2076 24.4669 14.941L24.4669 13.2456L19.8492 13.2456L19.8492 12.2237L26.4014 12.2237C26.9449 11.3829 27.5772 10.1797 27.9395 9.29789L29.0469 9.69096C28.5855 10.5147 28.025 11.4683 27.5191 12.2237L30.2911 12.2237L30.2911 13.2456L25.629 13.2456L25.629 14.9546C25.629 15.2212 25.6153 15.4707 25.6016 15.7373L31.0464 15.7373L31.0464 16.7593ZM21.1788 9.81742L22.0469 9.38334C22.6348 10.0977 23.2364 11.0752 23.4893 11.7212L22.563 12.2237C22.3272 11.5674 21.7393 10.5454 21.1788 9.81742ZM33.3433 21.8179L34.3789 21.8179L34.3789 22.0367L34.1602 22.0367L34.1602 12.0562L34.3789 12.0562L34.3789 12.2749L33.3433 12.2749L33.3433 12.0562L33.562 12.0562L33.562 22.0367L33.3433 22.0367L33.3433 21.8179ZM33.1245 22.2554L33.1245 11.8374L34.5977 11.8374L34.5977 22.2554L33.3433 22.2554L33.1245 22.2554ZM33.9827 9.58763Q35.352 11.147 35.9581 12.2444L35.7666 12.3501L35.6407 12.1713L36.4952 11.5697L36.6211 11.7486L36.4355 11.8644Q35.7557 10.7756 34.4579 9.37841L34.6182 9.22953L34.7345 9.41476L33.9347 9.9172L33.8184 9.73197L33.9827 9.58763ZM33.4845 9.68335L34.6552 8.94795L34.7784 9.08066Q36.1047 10.5084 36.8066 11.6327L36.9163 11.8083L35.693 12.6694L35.5751 12.4559Q34.992 11.4 33.654 9.87631L33.4845 9.68335ZM44.7114 9.97807L37.0244 9.97807L37.0244 9.75932L37.2432 9.75932L37.2432 10.7539L37.0244 10.7539L37.0244 10.5352L43.8945 10.5352L43.8945 20.6524Q43.8945 21.2035 43.3248 21.2331L43.3135 21.0147L43.3362 21.2322Q42.7343 21.2952 40.9934 21.2196L41.0029 21.001L41.1907 20.8888Q41.4764 21.367 41.5936 21.9674L41.3789 22.0093L41.3812 21.7906Q43.4638 21.812 43.9847 21.6347L44.0552 21.8418L43.9772 21.6374Q44.4927 21.4409 44.4927 20.6524L44.4927 9.75932L44.7114 9.75932L44.7114 9.97807ZM44.9302 9.54057L44.9302 20.6524Q44.9302 21.7423 44.1331 22.0462L44.1294 22.0476L44.1256 22.0489Q43.534 22.2502 41.3767 22.2281L41.1984 22.2262L41.1642 22.0512Q41.0617 21.5258 40.8152 21.1132L40.607 20.7648L41.0124 20.7825Q42.7209 20.8568 43.2907 20.7971L43.2964 20.7965L43.3021 20.7962Q43.457 20.7882 43.457 20.6524L43.457 10.7539L43.6758 10.7539L43.6758 10.9727L36.8057 10.9727L36.8057 9.54057L44.7114 9.54057L44.9302 9.54057ZM44.7114 9.75932L44.7114 20.6524C44.7114 21.3531 44.5303 21.6607 44.0552 21.8418C43.563 22.0093 42.7085 22.023 41.3789 22.0093C41.3242 21.729 41.1704 21.2813 41.0029 21.001C42.0249 21.0454 43.0195 21.0454 43.3135 21.0147C43.5767 21.001 43.6758 20.919 43.6758 20.6524L43.6758 10.7539L37.0244 10.7539L37.0244 9.75932L44.7114 9.75932ZM33.8184 9.73197L34.6182 9.22953C35.3325 9.99857 36.2007 11.0752 36.6211 11.7486L35.7666 12.3501C35.3872 11.6631 34.5327 10.5454 33.8184 9.73197ZM33.3433 22.0367L33.3433 12.0562L34.3789 12.0562L34.3789 22.0367L33.3433 22.0367Z" fill="#191919" fill-opacity="1.000000" transform="matrix(1 0 0 1 12.1494 153.177)"/></g><path d="M0 32L6 21.608L-6 21.608L0 32Z" transform="matrix(1 0 0 1 153.679 44.4737)" fill="#19191A" fill-opacity="1.000000" stroke="none"/><path d="M0 0L0 26" fill="none" stroke="#19191A" stroke-opacity="1.000000" stroke-width="2" stroke-linejoin="round" stroke-dasharray="0 0" transform="matrix(1 0 0 1 153.679 44.4737)"/><path d="M0 26.7032L6 16.3112L-6 16.3112L0 26.7032Z" transform="matrix(1 0 0 1 153.679 126.474)" fill="#19191A" fill-opacity="1.000000" stroke="none"/><path d="M0 0L0 20.7032" fill="none" stroke="#19191A" stroke-opacity="1.000000" stroke-width="2" stroke-linejoin="round" stroke-dasharray="0 0" transform="matrix(1 0 0 1 153.679 126.474)"/><path d="M-24.5293 51.7032L-18.5293 41.3112L-30.5293 41.3112L-24.5293 51.7032Z" transform="matrix(1 0 0 1 68.6787 101.474)" fill="#19191A" fill-opacity="1.000000" stroke="none"/><path d="M0 0L-14.5293 0C-20.0521 0 -24.5293 4.47715 -24.5293 10L-24.5293 45.7032" fill="none" stroke="#19191A" stroke-opacity="1.000000" stroke-width="2" stroke-linejoin="round" stroke-dasharray="0 0" transform="matrix(1 0 0 1 68.6787 101.474)"/><path d="M194.529 -83.7032L204.921 -77.7032L204.921 -89.7032L194.529 -83.7032Z" transform="matrix(1 0 0 1 44.1494 185.177)" fill="#19191A" fill-opacity="1.000000" stroke="none"/><path d="M0 0L0 21C0 26.5228 4.47715 31 10 31L215.529 31C221.052 31 225.529 26.5228 225.529 21L225.529 -73.7032C225.529 -79.2261 221.052 -83.7032 215.529 -83.7032L200.529 -83.7032" fill="none" stroke="#19191A" stroke-opacity="1.000000" stroke-width="2" stroke-linejoin="round" stroke-dasharray="0 0" transform="matrix(1 0 0 1 44.1494 185.177)"/><path d="M0 33.1647L6 22.7727L-6 22.7727L0 33.1647Z" transform="matrix(1 0 0 1 153.679 185.177)" fill="#19191A" fill-opacity="1.000000" stroke="none"/><path d="M0 0L0 27.1647" fill="none" stroke="#19191A" stroke-opacity="1.000000" stroke-width="2" stroke-linejoin="round" stroke-dasharray="0 0" transform="matrix(1 0 0 1 153.679 185.177)"/></svg>